<svg width="807" height="202" viewBox="0 0 807 202" fill="none" xmlns="http://www.w3.org/2000/svg">
<g clip-path="url(#clip0_6003_2)">
<path d="M102.983 162.074V104.491L121.283 93.2425V130.738L168.491 103.152C171.886 94.1531 165.662 76.5478 162.126 68.8701L178.569 60.5674C192.573 89.2786 187.94 116.811 183.874 126.989C171.143 172.413 124.642 188.411 102.983 190.732V173.055C135.445 173.484 157.352 142.523 164.248 126.989L102.983 162.074Z" fill="#040404"/>
<path d="M9.62675 114.937C4.32243 95.6529 13.2514 70.8341 18.3789 60.8352C25.3806 63.8349 31.9049 68.513 34.2918 70.477C28.351 78.1905 26.8658 96.3671 26.8658 104.491L54.183 121.364L74.6046 108.241L75.9307 93.2425L93.1697 102.884V118.954L72.7481 132.078L93.1697 144.13V191C84.895 190.786 77.3452 188.768 74.6046 187.786V153.504L54.183 142.255L44.6352 147.076L56.8352 159.932V181.358C26.8658 163.414 18.3789 143.326 18.3789 142.255C18.3789 141.398 30.402 135.113 36.4135 132.078C32.3823 129.506 16.876 119.579 9.62675 114.937Z" fill="#040404"/>
<path fill-rule="evenodd" clip-rule="evenodd" d="M56.8352 21.7323C43.7129 28.4945 30.9898 39.2167 22.6223 51.4613L97.6784 95.653L172.734 51.9969C164.935 39.376 152.382 29.0979 139.582 21.7323C125.791 15.5722 114.263 11.3619 99.5349 11.0191C84.8068 10.6763 69.9574 14.97 56.8352 21.7323ZM71.9051 34.0005C63.582 37.6803 56.5729 40.7806 51.2656 47.4438L98.9885 74.7624L145.682 47.4438C140.043 41.5207 134.466 38.8475 127.929 35.7143C126.781 35.1639 125.603 34.5993 124.39 34.0005C115.642 30.6483 108.33 28.3571 98.9885 28.1706C89.6468 27.984 80.2282 30.3206 71.9051 34.0005Z" fill="#040404"/>
<path d="M313.978 135.025C307.21 135.025 301.126 133.487 295.726 130.411C290.325 127.335 286.053 122.875 282.908 117.03C279.764 111.185 278.191 104.127 278.191 95.8555C278.191 87.5156 279.764 80.4233 282.908 74.5786C286.053 68.7339 290.325 64.2734 295.726 61.1973C301.126 58.1211 307.21 56.583 313.978 56.583C320.745 56.583 326.812 58.1211 332.178 61.1973C337.579 64.2734 341.851 68.7339 344.996 74.5786C348.14 80.4233 349.712 87.5156 349.712 95.8555C349.712 104.195 348.14 111.288 344.996 117.132C341.851 122.943 337.579 127.386 332.178 130.462C326.812 133.504 320.745 135.025 313.978 135.025ZM294.546 95.8555C294.546 103.922 296.307 110.091 299.827 114.364C303.382 118.636 308.099 120.772 313.978 120.772C319.822 120.772 324.505 118.636 328.025 114.364C331.58 110.091 333.357 103.922 333.357 95.8555C333.357 87.7549 331.58 81.5684 328.025 77.2959C324.505 72.9893 319.822 70.8359 313.978 70.8359C308.099 70.8359 303.382 72.9893 299.827 77.2959C296.307 81.5684 294.546 87.7549 294.546 95.8555ZM376.834 57.6084L392.215 83.6533H392.83L408.262 57.6084H426.514L403.238 95.8555L427.078 134H408.467L392.83 107.955H392.215L376.526 134H358.121L381.961 95.8555L358.531 57.6084H376.834ZM432.308 57.6084H450.457L467.837 90.5234H468.606L486.038 57.6084H504.136L476.246 107.032V134H460.198V107.032L432.308 57.6084ZM608.777 135.025C602.01 135.025 595.926 133.487 590.525 130.411C585.125 127.335 580.853 122.875 577.708 117.03C574.563 111.185 572.991 104.127 572.991 95.8555C572.991 87.5156 574.563 80.4233 577.708 74.5786C580.853 68.7339 585.125 64.2734 590.525 61.1973C595.926 58.1211 602.01 56.583 608.777 56.583C615.545 56.583 621.612 58.1211 626.978 61.1973C632.378 64.2734 636.651 68.7339 639.795 74.5786C642.94 80.4233 644.512 87.5156 644.512 95.8555C644.512 104.195 642.94 111.288 639.795 117.132C636.651 122.943 632.378 127.386 626.978 130.462C621.612 133.504 615.545 135.025 608.777 135.025ZM589.346 95.8555C589.346 103.922 591.106 110.091 594.627 114.364C598.182 118.636 602.898 120.772 608.777 120.772C614.622 120.772 619.305 118.636 622.825 114.364C626.38 110.091 628.157 103.922 628.157 95.8555C628.157 87.7549 626.38 81.5684 622.825 77.2959C619.305 72.9893 614.622 70.8359 608.777 70.8359C602.898 70.8359 598.182 72.9893 594.627 77.2959C591.106 81.5684 589.346 87.7549 589.346 95.8555ZM671.634 57.6084L687.015 83.6533H687.63L703.062 57.6084H721.314L698.038 95.8555L721.878 134H703.267L687.63 107.955H687.015L671.326 134H652.92L676.761 95.8555L653.331 57.6084H671.634ZM727.107 57.6084H745.257L762.637 90.5234H763.406L780.838 57.6084H798.936L771.045 107.032V134H754.998V107.032L727.107 57.6084Z" fill="#040404"/>
<path d="M512.955 134V57.6084H563.506V70.9385H529.053V91.9077H560.123V104.981H529.053V134H512.955Z" fill="#F86262"/>
</g>
<defs>
<clipPath id="clip0_6003_2">
<rect width="807" height="202" fill="white"/>
</clipPath>
</defs>
</svg>
